<svg width="13" height="13" viewBox="0 0 13 13" fill="none" xmlns="http://www.w3.org/2000/svg">
<g clip-path="url(#clip0_52_567)">
<path d="M5.95825 2.16699H2.16659C1.87927 2.16699 1.60372 2.28113 1.40055 2.48429C1.19739 2.68746 1.08325 2.96301 1.08325 3.25033V10.8337C1.08325 11.121 1.19739 11.3965 1.40055 11.5997C1.60372 11.8029 1.87927 11.917 2.16659 11.917H9.74992C10.0372 11.917 10.3128 11.8029 10.516 11.5997C10.7191 11.3965 10.8333 11.121 10.8333 10.8337V7.04199" stroke="white" stroke-width="1.08333" stroke-linecap="round" stroke-linejoin="round"/>
<path d="M10.0208 1.35413C10.2362 1.13864 10.5285 1.01758 10.8333 1.01758C11.138 1.01758 11.4303 1.13864 11.6458 1.35413C11.8612 1.56962 11.9823 1.86188 11.9823 2.16663C11.9823 2.47137 11.8612 2.76364 11.6458 2.97913L6.49992 8.12496L4.33325 8.66663L4.87492 6.49996L10.0208 1.35413Z" stroke="white" stroke-width="1.08333" stroke-linecap="round" stroke-linejoin="round"/>
</g>
<defs>
<clipPath id="clip0_52_567">
<rect width="13" height="13" fill="white"/>
</clipPath>
</defs>
</svg>
