<svg width="34" height="34" viewBox="0 0 34 34" fill="none" xmlns="http://www.w3.org/2000/svg">
<path d="M29.5234 6.53049C28.7998 5.80658 27.9407 5.23232 26.9951 4.84053C26.0495 4.44873 25.0361 4.24707 24.0125 4.24707C22.989 4.24707 21.9755 4.44873 21.0299 4.84053C20.0844 5.23232 19.2253 5.80658 18.5017 6.53049L17 8.03216L15.4984 6.53049C14.0368 5.06893 12.0545 4.24783 9.98753 4.24783C7.92056 4.24783 5.93826 5.06893 4.47669 6.53049C3.01513 7.99205 2.19403 9.97436 2.19403 12.0413C2.19403 14.1083 3.01513 16.0906 4.47669 17.5522L5.97836 19.0538L17 30.0755L28.0217 19.0538L29.5234 17.5522C30.2473 16.8286 30.8215 15.9695 31.2133 15.0239C31.6051 14.0783 31.8068 13.0648 31.8068 12.0413C31.8068 11.0178 31.6051 10.0043 31.2133 9.05874C30.8215 8.11317 30.2473 7.25406 29.5234 6.53049Z" fill="#FF0000"/>
</svg>
