<svg width="38" height="38" viewBox="0 0 38 38" fill="none" xmlns="http://www.w3.org/2000/svg">
<path d="M19 1.58301C17.7402 1.58301 16.532 2.08345 15.6412 2.97425C14.7504 3.86505 14.25 5.07323 14.25 6.33301V18.9997C14.25 20.2595 14.7504 21.4676 15.6412 22.3584C16.532 23.2492 17.7402 23.7497 19 23.7497C20.2598 23.7497 21.468 23.2492 22.3588 22.3584C23.2496 21.4676 23.75 20.2595 23.75 18.9997V6.33301C23.75 5.07323 23.2496 3.86505 22.3588 2.97425C21.468 2.08345 20.2598 1.58301 19 1.58301Z" stroke="white" stroke-width="2" stroke-linecap="round" stroke-linejoin="round"/>
<path d="M30.0833 15.833V18.9997C30.0833 21.9392 28.9156 24.7582 26.8371 26.8368C24.7585 28.9153 21.9394 30.083 19 30.083C16.0605 30.083 13.2414 28.9153 11.1629 26.8368C9.08433 24.7582 7.91663 21.9392 7.91663 18.9997V15.833" stroke="white" stroke-width="2" stroke-linecap="round" stroke-linejoin="round"/>
<path d="M19 30.083V36.4163" stroke="white" stroke-width="2" stroke-linecap="round" stroke-linejoin="round"/>
<path d="M12.6666 36.417H25.3333" stroke="white" stroke-width="2" stroke-linecap="round" stroke-linejoin="round"/>
</svg>
