<svg width="60" height="52" viewBox="0 0 60 52" fill="none" xmlns="http://www.w3.org/2000/svg">
<path d="M52.4069 7.31302C51.1056 6.03359 49.5605 5.01866 47.86 4.3262C46.1594 3.63375 44.3367 3.27734 42.496 3.27734C40.6552 3.27734 38.8325 3.63375 37.132 4.3262C35.4314 5.01866 33.8864 6.03359 32.5851 7.31302L29.8844 9.96703L27.1838 7.31302C24.5552 4.72988 20.9902 3.27868 17.2728 3.27868C13.5555 3.27868 9.99048 4.72988 7.36194 7.31302C4.73341 9.89616 3.25671 13.3996 3.25671 17.0528C3.25671 20.7059 4.73341 24.2094 7.36194 26.7925L10.0626 29.4465L29.8844 48.926L49.7062 29.4465L52.4069 26.7925C53.7088 25.5137 54.7416 23.9953 55.4462 22.3241C56.1508 20.6529 56.5135 18.8617 56.5135 17.0528C56.5135 15.2438 56.1508 13.4526 55.4462 11.7814C54.7416 10.1102 53.7088 8.59184 52.4069 7.31302Z" stroke="white" stroke-width="5.70608" stroke-linecap="round" stroke-linejoin="round"/>
</svg>
