<svg width="170" height="21" viewBox="0 0 170 21" fill="none" xmlns="http://www.w3.org/2000/svg">
<path d="M14.69 1.878L8.788 13.162V20H6.422V13.162L0.494 1.878H3.12L7.592 11.056L12.064 1.878H14.69ZM23.3996 20.234C22.0649 20.234 20.8516 19.9307 19.7596 19.324C18.6849 18.7173 17.8356 17.8593 17.2116 16.75C16.6049 15.6233 16.3016 14.3233 16.3016 12.85C16.3016 11.394 16.6136 10.1113 17.2376 9.002C17.8789 7.87533 18.7456 7.01733 19.8376 6.428C20.9296 5.82133 22.1516 5.518 23.5036 5.518C24.8556 5.518 26.0776 5.82133 27.1696 6.428C28.2616 7.01733 29.1196 7.86667 29.7436 8.976C30.3849 10.0853 30.7056 11.3767 30.7056 12.85C30.7056 14.3233 30.3763 15.6233 29.7176 16.75C29.0763 17.8593 28.2009 18.7173 27.0916 19.324C25.9823 19.9307 24.7516 20.234 23.3996 20.234ZM23.3996 18.154C24.2489 18.154 25.0463 17.9547 25.7916 17.556C26.5369 17.1573 27.1349 16.5593 27.5856 15.762C28.0536 14.9647 28.2876 13.994 28.2876 12.85C28.2876 11.706 28.0623 10.7353 27.6116 9.938C27.1609 9.14067 26.5716 8.55133 25.8436 8.17C25.1156 7.77133 24.3269 7.572 23.4776 7.572C22.6109 7.572 21.8136 7.77133 21.0856 8.17C20.3749 8.55133 19.8029 9.14067 19.3696 9.938C18.9363 10.7353 18.7196 11.706 18.7196 12.85C18.7196 14.0113 18.9276 14.9907 19.3436 15.788C19.7769 16.5853 20.3489 17.1833 21.0596 17.582C21.7703 17.9633 22.5503 18.154 23.3996 18.154ZM46.4525 5.752V20H44.0865V17.894C43.6358 18.622 43.0031 19.194 42.1885 19.61C41.3911 20.0087 40.5071 20.208 39.5365 20.208C38.4271 20.208 37.4305 19.9827 36.5465 19.532C35.6625 19.064 34.9605 18.3707 34.4405 17.452C33.9378 16.5333 33.6865 15.4153 33.6865 14.098V5.752H36.0265V13.786C36.0265 15.19 36.3818 16.2733 37.0925 17.036C37.8031 17.7813 38.7738 18.154 40.0045 18.154C41.2698 18.154 42.2665 17.764 42.9945 16.984C43.7225 16.204 44.0865 15.0687 44.0865 13.578V5.752H46.4525ZM52.8133 8.066C53.2293 7.25133 53.8186 6.61867 54.5813 6.168C55.3613 5.71733 56.306 5.492 57.4153 5.492V7.936H56.7913C54.1393 7.936 52.8133 9.37467 52.8133 12.252V20H50.4473V5.752H52.8133V8.066ZM79.1942 7.182C79.1942 8.69 78.6742 9.94667 77.6342 10.952C76.6115 11.94 75.0428 12.434 72.9282 12.434H69.4442V20H67.0782V1.878H72.9282C74.9735 1.878 76.5248 2.372 77.5822 3.36C78.6568 4.348 79.1942 5.622 79.1942 7.182ZM72.9282 10.484C74.2455 10.484 75.2162 10.198 75.8402 9.626C76.4642 9.054 76.7762 8.23933 76.7762 7.182C76.7762 4.946 75.4935 3.828 72.9282 3.828H69.4442V10.484H72.9282ZM88.3488 20.234C87.0141 20.234 85.8008 19.9307 84.7088 19.324C83.6341 18.7173 82.7848 17.8593 82.1608 16.75C81.5541 15.6233 81.2508 14.3233 81.2508 12.85C81.2508 11.394 81.5628 10.1113 82.1868 9.002C82.8281 7.87533 83.6948 7.01733 84.7868 6.428C85.8788 5.82133 87.1008 5.518 88.4528 5.518C89.8048 5.518 91.0268 5.82133 92.1188 6.428C93.2108 7.01733 94.0688 7.86667 94.6928 8.976C95.3341 10.0853 95.6548 11.3767 95.6548 12.85C95.6548 14.3233 95.3255 15.6233 94.6668 16.75C94.0255 17.8593 93.1501 18.7173 92.0408 19.324C90.9315 19.9307 89.7008 20.234 88.3488 20.234ZM88.3488 18.154C89.1981 18.154 89.9955 17.9547 90.7408 17.556C91.4861 17.1573 92.0841 16.5593 92.5348 15.762C93.0028 14.9647 93.2368 13.994 93.2368 12.85C93.2368 11.706 93.0115 10.7353 92.5608 9.938C92.1101 9.14067 91.5208 8.55133 90.7928 8.17C90.0648 7.77133 89.2761 7.572 88.4268 7.572C87.5601 7.572 86.7628 7.77133 86.0348 8.17C85.3241 8.55133 84.7521 9.14067 84.3188 9.938C83.8855 10.7353 83.6688 11.706 83.6688 12.85C83.6688 14.0113 83.8768 14.9907 84.2928 15.788C84.7261 16.5853 85.2981 17.1833 86.0088 17.582C86.7195 17.9633 87.4995 18.154 88.3488 18.154ZM97.8817 12.824C97.8817 11.368 98.1763 10.094 98.7657 9.002C99.355 7.89267 100.161 7.03467 101.184 6.428C102.224 5.82133 103.385 5.518 104.668 5.518C105.777 5.518 106.808 5.778 107.762 6.298C108.715 6.80067 109.443 7.468 109.946 8.3V0.76H112.338V20H109.946V17.322C109.478 18.1713 108.784 18.8733 107.866 19.428C106.947 19.9653 105.872 20.234 104.642 20.234C103.376 20.234 102.224 19.922 101.184 19.298C100.161 18.674 99.355 17.7987 98.7657 16.672C98.1763 15.5453 97.8817 14.2627 97.8817 12.824ZM109.946 12.85C109.946 11.7753 109.729 10.8393 109.296 10.042C108.862 9.24467 108.273 8.638 107.528 8.222C106.8 7.78867 105.994 7.572 105.11 7.572C104.226 7.572 103.42 7.78 102.692 8.196C101.964 8.612 101.383 9.21867 100.95 10.016C100.516 10.8133 100.3 11.7493 100.3 12.824C100.3 13.916 100.516 14.8693 100.95 15.684C101.383 16.4813 101.964 17.0967 102.692 17.53C103.42 17.946 104.226 18.154 105.11 18.154C105.994 18.154 106.8 17.946 107.528 17.53C108.273 17.0967 108.862 16.4813 109.296 15.684C109.729 14.8693 109.946 13.9247 109.946 12.85ZM115.452 12.85C115.452 11.3767 115.747 10.094 116.336 9.002C116.925 7.89267 117.74 7.03467 118.78 6.428C119.837 5.82133 121.042 5.518 122.394 5.518C124.145 5.518 125.583 5.94267 126.71 6.792C127.854 7.64133 128.608 8.82 128.972 10.328H126.424C126.181 9.46133 125.705 8.77667 124.994 8.274C124.301 7.77133 123.434 7.52 122.394 7.52C121.042 7.52 119.95 7.988 119.118 8.924C118.286 9.84267 117.87 11.1513 117.87 12.85C117.87 14.566 118.286 15.892 119.118 16.828C119.95 17.764 121.042 18.232 122.394 18.232C123.434 18.232 124.301 17.9893 124.994 17.504C125.687 17.0187 126.164 16.3253 126.424 15.424H128.972C128.591 16.88 127.828 18.05 126.684 18.934C125.54 19.8007 124.11 20.234 122.394 20.234C121.042 20.234 119.837 19.9307 118.78 19.324C117.74 18.7173 116.925 17.8593 116.336 16.75C115.747 15.6407 115.452 14.3407 115.452 12.85ZM131.245 12.824C131.245 11.368 131.54 10.094 132.129 9.002C132.718 7.89267 133.524 7.03467 134.547 6.428C135.587 5.82133 136.74 5.518 138.005 5.518C139.253 5.518 140.336 5.78667 141.255 6.324C142.174 6.86133 142.858 7.53733 143.309 8.352V5.752H145.701V20H143.309V17.348C142.841 18.18 142.139 18.8733 141.203 19.428C140.284 19.9653 139.21 20.234 137.979 20.234C136.714 20.234 135.57 19.922 134.547 19.298C133.524 18.674 132.718 17.7987 132.129 16.672C131.54 15.5453 131.245 14.2627 131.245 12.824ZM143.309 12.85C143.309 11.7753 143.092 10.8393 142.659 10.042C142.226 9.24467 141.636 8.638 140.891 8.222C140.163 7.78867 139.357 7.572 138.473 7.572C137.589 7.572 136.783 7.78 136.055 8.196C135.327 8.612 134.746 9.21867 134.313 10.016C133.88 10.8133 133.663 11.7493 133.663 12.824C133.663 13.916 133.88 14.8693 134.313 15.684C134.746 16.4813 135.327 17.0967 136.055 17.53C136.783 17.946 137.589 18.154 138.473 18.154C139.357 18.154 140.163 17.946 140.891 17.53C141.636 17.0967 142.226 16.4813 142.659 15.684C143.092 14.8693 143.309 13.9247 143.309 12.85ZM154.743 20.234C153.651 20.234 152.672 20.052 151.805 19.688C150.939 19.3067 150.254 18.7867 149.751 18.128C149.249 17.452 148.971 16.6807 148.919 15.814H151.363C151.433 16.5247 151.762 17.1053 152.351 17.556C152.958 18.0067 153.747 18.232 154.717 18.232C155.619 18.232 156.329 18.0327 156.849 17.634C157.369 17.2353 157.629 16.7327 157.629 16.126C157.629 15.502 157.352 15.0427 156.797 14.748C156.243 14.436 155.385 14.1327 154.223 13.838C153.166 13.5607 152.299 13.2833 151.623 13.006C150.965 12.7113 150.393 12.2867 149.907 11.732C149.439 11.16 149.205 10.4147 149.205 9.496C149.205 8.768 149.422 8.10067 149.855 7.494C150.289 6.88733 150.904 6.41067 151.701 6.064C152.499 5.7 153.409 5.518 154.431 5.518C156.009 5.518 157.283 5.91667 158.253 6.714C159.224 7.51133 159.744 8.60333 159.813 9.99H157.447C157.395 9.24467 157.092 8.64667 156.537 8.196C156 7.74533 155.272 7.52 154.353 7.52C153.504 7.52 152.828 7.702 152.325 8.066C151.823 8.43 151.571 8.90667 151.571 9.496C151.571 9.964 151.719 10.354 152.013 10.666C152.325 10.9607 152.707 11.2033 153.157 11.394C153.625 11.5673 154.267 11.7667 155.081 11.992C156.104 12.2693 156.936 12.5467 157.577 12.824C158.219 13.084 158.765 13.4827 159.215 14.02C159.683 14.5573 159.926 15.2593 159.943 16.126C159.943 16.906 159.727 17.608 159.293 18.232C158.86 18.856 158.245 19.35 157.447 19.714C156.667 20.0607 155.766 20.234 154.743 20.234ZM166.169 7.702V16.1C166.169 16.7933 166.317 17.2873 166.611 17.582C166.906 17.8593 167.417 17.998 168.145 17.998H169.887V20H167.755C166.438 20 165.45 19.6967 164.791 19.09C164.133 18.4833 163.803 17.4867 163.803 16.1V7.702H161.957V5.752H163.803V2.164H166.169V5.752H169.887V7.702H166.169Z" fill="white"/>
</svg>
